<svg xmlns="http://www.w3.org/2000/svg" viewBox="0 0 100 100" role="img" aria-label="WhatsApp">
  <path fill="#2fc85a" d="M50 4C24.6 4 4 24.6 4 50c0 8.5 2.3 16.5 6.4 23.4L5 96l23.1-5.2A45.8 45.8 0 0 0 50 96c25.4 0 46-20.6 46-46S75.4 4 50 4Z"/>
  <path fill="#fff" d="M36.7 27.4c-1.1-2.5-2.3-2.6-3.3-2.7h-2.8c-1 0-2.6.4-3.9 1.9-1.3 1.5-5.1 5-5.1 12.1s5.2 14 5.9 15c.7 1 10.1 16.2 25 22 12.4 4.9 15 3.9 17.7 3.7 2.7-.2 8.7-3.6 9.9-7 1.2-3.4 1.2-6.3.9-7-.4-.6-1.3-1-2.8-1.8l-9.9-4.9c-1.5-.7-2.6-1.1-3.7 1.1-1.1 2.2-4.2 4.9-5.2 5.9-.9 1-1.9 1.1-3.4.4-1.5-.7-6.5-2.4-12.3-7.6-4.6-4.1-7.6-9.1-8.5-10.6-.9-1.5-.1-2.3.7-3.1.7-.7 1.5-1.9 2.2-2.8.7-.9 1-1.5 1.5-2.6.5-1 .2-1.9-.1-2.7l-4.5-10.3Z"/>
</svg>
